<svg width="24" height="24" viewBox="0 0 24 24" fill="none" xmlns="http://www.w3.org/2000/svg">
<g id="icon/ic_notifications">
<path id="Shape" fill-rule="evenodd" clip-rule="evenodd" d="M18.72 13.4002L20.52 15.2102C20.9822 15.6801 21.1182 16.3812 20.8651 16.9898C20.6121 17.5985 20.0192 17.9965 19.36 18.0002H16V18.3402C15.9027 20.4539 14.114 22.0906 12 22.0002C9.88601 22.0906 8.09725 20.4539 8 18.3402V18.0002H4.64C3.98083 17.9965 3.38794 17.5985 3.13487 16.9898C2.88181 16.3812 3.01776 15.6801 3.48 15.2102L5.28 13.4002V8.73018C5.28353 6.79135 6.12184 4.94794 7.58072 3.67094C9.0396 2.39394 10.9778 1.80703 12.9 2.06018C16.2855 2.57906 18.7695 5.51552 18.72 8.94018V13.4002ZM12 20.0002C13.0034 20.071 13.8848 19.3395 14 18.3402V18.0002H10V18.3402C10.1152 19.3395 10.9966 20.071 12 20.0002Z" fill="#212B36"/>
</g>
</svg>
